<svg xmlns:xlink="http://www.w3.org/1999/xlink" t="1736471692642" class="icon w-8 h-8" viewBox="0 0 1024 1024" version="1.1" xmlns="http://www.w3.org/2000/svg" p-id="4303" width="1024"  height="1024" ><path d="M82.54 797.27c19.12 1.27 35.84-12.76 55.02-5.27 19.98 7.8 286.39 84 333.66 84.29 47.27 0.29 126.44 2.34 126.44 2.34 160.11-20 225.24-38.92 247.61-57.37 93.37-47.12 101.85-120.88 117.66-168.59 7.61-29.27 8.05-98.49 4.1-114.73-2.78-40.24-6.43-59.83-16.39-80.2-7.21-25.68-34.82-32.01-72-29.27-5.98-2.67-46.1 3.66-172.68 32.78-38.66 7.64-61.63 13.43-75.51 18.15-81.06 38.61-183.3 91.26-287.41 145.17-20.78 7.02-38.89-9.04-43.9-22.83-5-13.74-6.44-23.51-1.76-32.2 7.24-12.66 43.9-39.07 69.66-50.93 25.76-11.85 142.39-41.41 177.95-48.59 35.56-7.17 51.95-5.56 85.46-12.29 33.5-6.71 257.55-64.95 257.55-64.95 26.2-8.27 31.88-26.91 28.1-50.34-35.27-50.78-70.98-93.37-114.73-120-57.58-32.62-116.58-50.11-176.78-55.02-68.56-4.57-115.83 0.22-150.44 11.27-52.24 15.51-61.53 24.38-80.78 39.07-80.28 42.23-151.62 125.25-216 240-32.61 56.65-60.17 108.84-83.71 157.46l-66.73 81.95c-11.97 18.08-11.97 36.42 0 55.02 13.8 25.48 36.48 43.81 55.61 45.08z" p-id="4304" fill="#7C3AED"></path></svg>